<svg width="24" height="24" viewBox="0 0 24 24" fill="none" xmlns="http://www.w3.org/2000/svg">
<path d="M6.75 22C6 22 5.35417 21.7459 4.8125 21.2375C4.27083 20.7292 4 20.1 4 19.35V5.40005C4 4.76672 4.19583 4.20005 4.5875 3.70005C4.97917 3.20005 5.49167 2.88338 6.125 2.75005L16 0.800049V16.8L6.525 18.7C6.375 18.7334 6.25 18.8125 6.15 18.9375C6.05 19.0625 6 19.2 6 19.35C6 19.5334 6.075 19.6875 6.225 19.8125C6.375 19.9375 6.55 20 6.75 20H18V4.00005H20V22H6.75ZM7 16.575L9 16.175V4.22505L7 4.62505V16.575Z" fill="#F24822"/>
</svg>
