<svg width="101" height="30" viewBox="0 0 101 30" fill="none" xmlns="http://www.w3.org/2000/svg">
<rect width="101" height="30" rx="4" fill="#4E8AFF"/>
<path d="M33.4061 7.632V21.648H31.8221V14.256H30.0621V21.264H28.4781V7.856H30.0621V12.928H31.8221V7.632H33.4061ZM27.5661 16.032L27.7581 17.344C26.3608 17.664 24.7181 17.824 22.8301 17.824H21.5661V9.04H23.1341V16.48H23.2461C24.8995 16.48 26.3395 16.3307 27.5661 16.032ZM51.133 7.632V21.648H49.581V14.256H47.901V21.264H46.365V7.856H47.901V12.928H49.581V7.632H51.133ZM39.437 9.008H44.957V11.6C44.957 12.6667 44.7863 13.6 44.445 14.4C44.1143 15.1893 43.5917 15.936 42.877 16.64C42.1623 17.344 41.181 18.1173 39.933 18.96L38.925 17.856C40.1517 17.0347 41.0903 16.304 41.741 15.664C42.3917 15.024 42.8503 14.3413 43.117 13.616L39.085 13.968L38.909 12.64L43.389 12.4C43.421 12.144 43.437 11.872 43.437 11.584V10.304H39.437V9.008ZM64.9186 7.632V16.368H63.3026V7.632H64.9186ZM61.9426 15.456C60.108 15.7867 57.916 15.952 55.3666 15.952H53.7346V11.456H58.5186V9.728H53.7026V8.416H60.0866V12.736H55.3186V14.64H55.3826C57.7506 14.64 59.868 14.4907 61.7346 14.192L61.9426 15.456ZM55.6066 17.168H64.9186V22.368H63.3346V18.528H55.6066V17.168ZM78.9923 7.632V21.648H77.3763V13.952H74.8323V12.592H77.3763V7.632H78.9923ZM75.3123 16.512L75.5203 17.808C73.8136 18.128 71.7389 18.288 69.2963 18.288H67.7123V8.672H74.1443V10H69.3123V12.672H73.8883V14H69.3123V16.96H69.4083C71.5843 16.96 73.5523 16.8107 75.3123 16.512Z" fill="white"/>
</svg>
