<svg width="24" height="24" viewBox="0 0 24 24" fill="none" xmlns="http://www.w3.org/2000/svg">
<path fill-rule="evenodd" clip-rule="evenodd" d="M3.84098 2.81593C3.61882 2.81593 3.39084 2.90943 3.2116 3.10062C3.03021 3.29411 2.91743 3.57029 2.91743 3.87141V12.4653C3.21173 12.3672 3.52274 12.3153 3.84098 12.3153H11.6595C11.1444 12.9231 10.754 13.6399 10.5279 14.4263H3.84098C3.61882 14.4263 3.39084 14.5198 3.2116 14.7109C3.03021 14.9044 2.91743 15.1806 2.91743 15.4817V16.5372C2.91743 16.8383 3.03021 17.1145 3.2116 17.308C3.39084 17.4992 3.61882 17.5927 3.84098 17.5927H10.5279C10.754 18.3791 11.1444 19.0959 11.6594 19.7037H3.84098C3.01338 19.7037 2.23462 19.3524 1.67157 18.7518C1.11069 18.1535 0.806458 17.3558 0.806458 16.5372V15.4817V3.87141C0.806458 3.05281 1.11069 2.25512 1.67157 1.65684C2.23462 1.05626 3.01338 0.704956 3.84098 0.704956H14.5278C15.1107 0.704956 15.5832 1.17751 15.5832 1.76044V10.309C14.8293 10.3663 14.1162 10.5699 13.4723 10.8915V2.81593H3.84098Z" fill="#F24822"/>
<path fill-rule="evenodd" clip-rule="evenodd" d="M16 11.1818C13.339 11.1818 11.1818 13.339 11.1818 16C11.1818 18.661 13.339 20.8182 16 20.8182C18.661 20.8182 20.8182 18.661 20.8182 16C20.8182 13.339 18.661 11.1818 16 11.1818ZM9 16C9 12.134 12.134 9 16 9C19.866 9 23 12.134 23 16C23 19.866 19.866 23 16 23C12.134 23 9 19.866 9 16Z" fill="#F24822"/>
<path fill-rule="evenodd" clip-rule="evenodd" d="M17.2828 13.7226C17.2828 13.1397 16.8103 12.6671 16.2273 12.6671C15.6444 12.6671 15.1719 13.1397 15.1719 13.7226V14.954H13.9404C13.3575 14.954 12.8849 15.4265 12.8849 16.0094C12.8849 16.5924 13.3575 17.0649 13.9404 17.0649H15.1719V18.2964C15.1719 18.8793 15.6444 19.3518 16.2273 19.3518C16.8103 19.3518 17.2828 18.8793 17.2828 18.2964V17.0649H18.5142C19.0971 17.0649 19.5697 16.5924 19.5697 16.0094C19.5697 15.4265 19.0971 14.954 18.5142 14.954H17.2828V13.7226Z" fill="#F24822"/>
</svg>
