<svg width="40" height="40" viewBox="0 0 40 40" fill="none" xmlns="http://www.w3.org/2000/svg">
<mask id="mask0_875_2814" style="mask-type:luminance" maskUnits="userSpaceOnUse" x="0" y="0" width="40" height="40">
<path d="M0 0H40V40H0V0Z" fill="white"/>
</mask>
<g mask="url(#mask0_875_2814)">
<path d="M20 40C31.0457 40 40 31.0457 40 20C40 8.9543 31.0457 0 20 0C8.9543 0 0 8.9543 0 20C0 31.0457 8.9543 40 20 40Z" fill="black"/>
<path d="M24.692 19.134C24.716 21.736 26.975 22.602 27 22.614C26.98 22.674 26.64 23.847 25.81 25.059C25.094 26.106 24.35 27.149 23.178 27.171C22.027 27.193 21.657 26.489 20.34 26.489C19.025 26.489 18.613 27.149 17.523 27.193C16.393 27.235 15.531 26.06 14.809 25.016C13.332 22.882 12.204 18.984 13.719 16.354C14.472 15.047 15.817 14.22 17.277 14.199C18.387 14.178 19.436 14.946 20.114 14.946C20.793 14.946 22.067 14.022 23.406 14.158C23.966 14.181 25.54 14.384 26.551 15.863C26.469 15.913 24.673 16.959 24.692 19.134ZM22.529 12.745C23.129 12.019 23.533 11.007 23.423 10C22.558 10.035 21.511 10.577 20.89 11.303C20.334 11.946 19.847 12.976 19.978 13.963C20.943 14.037 21.929 13.473 22.529 12.745Z" fill="white"/>
</g>
</svg>