<svg width="24" height="24" viewBox="0 0 24 24" fill="none" xmlns="http://www.w3.org/2000/svg">
<path d="M3 17.0013V6.00134C3 5.44906 3.44772 5.00134 4 5.00134H6.98918C7.54112 5.00134 7.98869 5.44851 7.98918 6.00044L7.9991 17.0004C7.9996 17.5531 7.55174 18.0013 6.9991 18.0013H4C3.44772 18.0013 3 17.5536 3 17.0013Z" stroke="#FFDE30" stroke-width="2"/>
<path d="M8 16.9994V5.99939C8 5.4471 8.44772 4.99939 9 4.99939H11.9892C12.5411 4.99939 12.9887 5.44656 12.9892 5.99849L12.9991 16.9985C12.9996 17.5511 12.5517 17.9994 11.9991 17.9994H9C8.44772 17.9994 8 17.5517 8 16.9994Z" stroke="#FFDE30" stroke-width="2"/>
<path d="M17.0959 17.1304L14.2729 7.17823C14.1222 6.64691 14.4307 6.09401 14.962 5.94329L17.6253 5.18785C18.1562 5.03723 18.7089 5.34528 18.86 5.87613L21.692 15.8258C21.8433 16.3573 21.5348 16.9108 21.0031 17.0616L18.3309 17.8196C17.7995 17.9703 17.2466 17.6618 17.0959 17.1304Z" stroke="#FFDE30" stroke-width="2"/>
</svg>
