<svg width="24" height="24" viewBox="0 0 24 24" fill="none" xmlns="http://www.w3.org/2000/svg">
<path d="M10.8298 8.57132C10.8298 8.87443 10.7094 9.16512 10.495 9.37945C10.2807 9.59377 9.99003 9.71418 9.68692 9.71418C9.38382 9.71418 9.09313 9.59377 8.8788 9.37945C8.66448 9.16512 8.54407 8.87443 8.54407 8.57132C8.54407 8.26822 8.66448 7.97753 8.8788 7.7632C9.09313 7.54887 9.38382 7.42847 9.68692 7.42847C9.99003 7.42847 10.2807 7.54887 10.495 7.7632C10.7094 7.97753 10.8298 8.26822 10.8298 8.57132ZM14.2526 9.71418C14.5557 9.71418 14.8464 9.59377 15.0608 9.37945C15.2751 9.16512 15.3955 8.87443 15.3955 8.57132C15.3955 8.26822 15.2751 7.97753 15.0608 7.7632C14.8464 7.54887 14.5557 7.42847 14.2526 7.42847C13.9495 7.42847 13.6588 7.54887 13.4445 7.7632C13.2302 7.97753 13.1098 8.26822 13.1098 8.57132C13.1098 8.87443 13.2302 9.16512 13.4445 9.37945C13.6588 9.59377 13.9495 9.71418 14.2526 9.71418Z" fill="#AAAAAA"/>
<path fill-rule="evenodd" clip-rule="evenodd" d="M20 22.2857V9.71423C20 8.66366 19.7931 7.62337 19.391 6.65277C18.989 5.68216 18.3997 4.80025 17.6569 4.05738C16.914 3.31451 16.0321 2.72523 15.0615 2.3232C14.0909 1.92116 13.0506 1.71423 12 1.71423C10.9494 1.71423 9.90914 1.92116 8.93853 2.3232C7.96793 2.72523 7.08601 3.31451 6.34315 4.05738C5.60028 4.80025 5.011 5.68216 4.60896 6.65277C4.20693 7.62337 4 8.66366 4 9.71423V22.2857H7.232L8.84914 20.6697L10.4651 22.2857H13.5349L15.1509 20.6697L16.768 22.2857H20ZM17.7143 9.71423C17.7143 8.19871 17.1122 6.74526 16.0406 5.67362C14.969 4.60199 13.5155 3.99995 12 3.99995C10.4845 3.99995 9.03103 4.60199 7.95939 5.67362C6.88775 6.74526 6.28571 8.19871 6.28571 9.71423V19.9999L8.84914 17.4365L12 20.5885L15.1509 17.4365L17.7143 19.9999V9.71423Z" fill="#AAAAAA"/>
</svg>
