<svg width="24" height="24" viewBox="0 0 24 24" fill="none" xmlns="http://www.w3.org/2000/svg">
<path d="M8.14286 1C8.85402 1 9.42857 1.58652 9.42857 2.3125V3.625H14.5714V2.3125C14.5714 1.58652 15.146 1 15.8571 1C16.5683 1 17.1429 1.58652 17.1429 2.3125V3.625H19.0714C20.1362 3.625 21 4.50684 21 5.59375V7.5625H3V5.59375C3 4.50684 3.86384 3.625 4.92857 3.625H6.85714V2.3125C6.85714 1.58652 7.4317 1 8.14286 1ZM3 8.875H21V20.0312C21 21.1182 20.1362 22 19.0714 22H4.92857C3.86384 22 3 21.1182 3 20.0312V8.875ZM16.2188 13.5098C16.5964 13.1242 16.5964 12.5008 16.2188 12.1193C15.8411 11.7379 15.2304 11.7338 14.8567 12.1193L11.0397 16.0158L9.15134 14.0881C8.77366 13.7025 8.16295 13.7025 7.78929 14.0881C7.41562 14.4736 7.41161 15.0971 7.78929 15.4785L10.3607 18.1035C10.7384 18.4891 11.3491 18.4891 11.7228 18.1035L16.2188 13.5098Z" fill="#4E8AFF"/>
</svg>
