<svg width="40" height="40" viewBox="0 0 40 40" fill="none" xmlns="http://www.w3.org/2000/svg">
<g clip-path="url(#clip0_875_2831)">
<path d="M20 40C31.0457 40 40 31.0457 40 20C40 8.9543 31.0457 0 20 0C8.9543 0 0 8.9543 0 20C0 31.0457 8.9543 40 20 40Z" fill="#4267B2"/>
<path d="M21.512 29V19.999H23.965L24.29 16.897H21.512L21.516 15.345C21.516 14.535 21.592 14.102 22.739 14.102H24.272V11H21.82C18.874 11 17.837 12.505 17.837 15.035V16.898H16V19.999H17.836V29H21.512Z" fill="white"/>
</g>
<defs>
<clipPath id="clip0_875_2831">
<rect width="40" height="40" fill="white"/>
</clipPath>
</defs>
</svg>
