<svg width="24" height="24" viewBox="0 0 24 24" fill="none" xmlns="http://www.w3.org/2000/svg">
<path fill-rule="evenodd" clip-rule="evenodd" d="M14.4619 2.49324C15.2507 2.1664 16.0961 1.99817 16.95 1.99817C17.8038 1.99817 18.6493 2.1664 19.4381 2.49324C20.2268 2.82003 20.9434 3.29897 21.5469 3.90272C22.1507 4.50627 22.63 5.22318 22.9567 6.01185C23.2836 6.80066 23.4518 7.64614 23.4518 8.49999C23.4518 9.35384 23.2836 10.1993 22.9567 10.9881C22.6299 11.7769 22.1509 12.4935 21.5471 13.0971C21.547 13.0972 21.5472 13.097 21.5471 13.0971L12.7071 21.9371C12.3166 22.3276 11.6834 22.3276 11.2929 21.9371L2.45289 13.0971C1.23366 11.8779 0.548706 10.2242 0.548706 8.49999C0.548706 6.77574 1.23366 5.12212 2.45289 3.90289C3.67212 2.68366 5.32575 1.9987 7.05 1.9987C8.77425 1.9987 10.4279 2.68366 11.6471 3.90289L12 4.25578L12.3527 3.90305C12.3528 3.903 12.3527 3.90311 12.3527 3.90305C12.9563 3.29923 13.6731 2.82006 14.4619 2.49324ZM16.95 3.99817C16.3589 3.99817 15.7735 4.11463 15.2274 4.34091C14.6813 4.56719 14.1852 4.89885 13.7673 5.31694L12.7071 6.3771C12.3166 6.76763 11.6834 6.76763 11.2929 6.3771L10.2329 5.3171C9.38873 4.47295 8.24381 3.9987 7.05 3.9987C5.85618 3.9987 4.71126 4.47295 3.8671 5.3171C3.02295 6.16126 2.54871 7.30618 2.54871 8.49999C2.54871 9.69381 3.02295 10.8387 3.8671 11.6829L12 19.8158L20.1329 11.6829C20.551 11.265 20.8828 10.7687 21.1091 10.2226C21.3354 9.67645 21.4518 9.09112 21.4518 8.49999C21.4518 7.90887 21.3354 7.32353 21.1091 6.77743C20.8828 6.23133 20.5511 5.73516 20.1331 5.31727C19.7152 4.89918 19.2187 4.56719 18.6726 4.34091C18.1265 4.11463 17.5411 3.99817 16.95 3.99817Z" fill="#CCCCCC"/>
</svg>
