<svg width="24" height="24" viewBox="0 0 24 24" fill="none" xmlns="http://www.w3.org/2000/svg">
<path d="M10.6493 1.49492C11.0101 1.19522 11.4495 1.02298 11.9062 1.00214C12.363 0.981306 12.8145 1.11291 13.1979 1.37866L13.3508 1.4961L22.5731 9.153C23.3662 9.81182 22.9801 11.14 22.0242 11.2492L21.8966 11.2563H20.7999V20.6513C20.8001 21.2438 20.5905 21.8146 20.2131 22.249C19.8357 22.6835 19.3184 22.9497 18.7649 22.9941L18.6 23H5.40019C4.84535 22.9999 4.31105 22.776 3.90431 22.3731C3.49757 21.9702 3.24844 21.4181 3.20683 20.8274L3.20023 20.6513V11.2563H2.10355C1.09926 11.2563 0.638373 9.95509 1.33026 9.24225L1.42706 9.153L10.6493 1.49492ZM12.0001 3.34926L4.9877 9.17179C5.23959 9.38904 5.40019 9.72139 5.40019 10.0937V20.6513H8.70013V14.7794C8.70013 13.845 9.0478 12.9489 9.66666 12.2882C10.2855 11.6275 11.1249 11.2563 12.0001 11.2563C12.8753 11.2563 13.7146 11.6275 14.3335 12.2882C14.9523 12.9489 15.3 13.845 15.3 14.7794V20.6513H18.6V10.0937C18.6 9.72139 18.7606 9.38904 19.0124 9.17179L12.0001 3.34926ZM12.0001 13.605C11.7083 13.605 11.4286 13.7288 11.2223 13.949C11.016 14.1692 10.9001 14.4679 10.9001 14.7794V20.6513H13.1001V14.7794C13.1001 14.4679 12.9842 14.1692 12.7779 13.949C12.5716 13.7288 12.2918 13.605 12.0001 13.605Z" fill="#F24822"/>
</svg>
