<svg width="40" height="40" viewBox="0 0 40 40" fill="none" xmlns="http://www.w3.org/2000/svg">
<g clip-path="url(#clip0_875_2832)">
<path d="M20 40C31.0457 40 40 31.0457 40 20C40 8.9543 31.0457 0 20 0C8.9543 0 0 8.9543 0 20C0 31.0457 8.9543 40 20 40Z" fill="#FFE812"/>
<path d="M20 11.5C14.615 11.5 10.25 14.943 10.25 19.19C10.25 21.935 12.075 24.345 14.82 25.705C14.67 26.22 13.86 29.02 13.828 29.24C13.828 29.24 13.808 29.405 13.916 29.468C14.023 29.531 14.148 29.482 14.148 29.482C14.455 29.439 17.706 27.155 18.268 26.759C18.83 26.839 19.409 26.879 20 26.879C25.385 26.879 29.75 23.437 29.75 19.189C29.75 14.943 25.385 11.5 20 11.5Z" fill="#3C1E1E"/>
<path d="M14.841 21.871C14.6953 21.8742 14.5543 21.8195 14.4489 21.7188C14.3435 21.6181 14.2824 21.4797 14.279 21.334V17.992H13.4C13.261 17.9817 13.1311 17.9193 13.0362 17.8172C12.9414 17.7151 12.8887 17.5809 12.8887 17.4415C12.8887 17.3022 12.9414 17.168 13.0362 17.0658C13.1311 16.9637 13.261 16.9013 13.4 16.891H16.28C16.419 16.9013 16.5489 16.9637 16.6438 17.0658C16.7386 17.168 16.7913 17.3022 16.7913 17.4415C16.7913 17.5809 16.7386 17.7151 16.6438 17.8172C16.5489 17.9193 16.419 17.9817 16.28 17.992H15.403V21.334C15.4013 21.4062 15.3854 21.4774 15.3562 21.5435C15.327 21.6096 15.285 21.6693 15.2328 21.7192C15.1805 21.769 15.1189 21.8081 15.0515 21.8342C14.9841 21.8602 14.9132 21.8727 14.841 21.871ZM19.773 21.864C19.539 21.864 19.359 21.768 19.305 21.615L19.027 20.886H17.312L17.032 21.616C16.979 21.769 16.8 21.864 16.565 21.864C16.4415 21.864 16.3194 21.8374 16.207 21.786C16.052 21.715 15.903 21.518 16.074 20.987L17.42 17.446C17.514 17.176 17.802 16.899 18.169 16.891C18.536 16.899 18.824 17.177 18.919 17.447L20.264 20.987C20.435 21.518 20.286 21.715 20.131 21.787C20.0186 21.8381 19.8965 21.8643 19.773 21.864ZM18.731 19.89L18.169 18.294L17.607 19.89H18.731ZM21.169 21.79C21.0997 21.7915 21.0307 21.7793 20.9661 21.7541C20.9015 21.7289 20.8425 21.6912 20.7924 21.6432C20.7423 21.5952 20.7022 21.5378 20.6744 21.4743C20.6465 21.4107 20.6314 21.3424 20.63 21.273V17.453C20.6321 17.3025 20.6936 17.159 20.8012 17.0537C20.9087 16.9484 21.0535 16.8899 21.204 16.891C21.3547 16.8897 21.4997 16.948 21.6075 17.0534C21.7152 17.1587 21.7769 17.3024 21.779 17.453V20.758H22.974C23.271 20.758 23.513 20.989 23.513 21.273C23.5114 21.3424 23.4962 21.4107 23.4683 21.4742C23.4403 21.5376 23.4001 21.595 23.3499 21.6429C23.2998 21.6908 23.2407 21.7284 23.176 21.7534C23.1113 21.7785 23.0423 21.7906 22.973 21.789H21.17L21.169 21.79ZM24.294 21.864C24.1449 21.8637 24.0019 21.8043 23.8966 21.6988C23.7912 21.5932 23.732 21.4502 23.732 21.301V17.453C23.7381 17.3079 23.8001 17.1708 23.9049 17.0703C24.0097 16.9698 24.1493 16.9137 24.2945 16.9137C24.4397 16.9137 24.5793 16.9698 24.6841 17.0703C24.7889 17.1708 24.8509 17.3079 24.857 17.453V18.663L26.427 17.093C26.4681 17.0527 26.5167 17.021 26.57 16.9995C26.6234 16.9781 26.6805 16.9674 26.738 16.968C26.878 16.968 27.02 17.028 27.125 17.134C27.222 17.2284 27.281 17.3551 27.291 17.49C27.2961 17.5528 27.2875 17.616 27.2659 17.6752C27.2444 17.7344 27.2103 17.7882 27.166 17.833L25.885 19.115L27.269 20.949C27.3367 21.0375 27.3764 21.1442 27.3828 21.2555C27.3892 21.3667 27.3621 21.4773 27.305 21.573C27.2332 21.6962 27.1171 21.7875 26.9803 21.8282C26.8436 21.8689 26.6965 21.8559 26.569 21.792C26.4909 21.7529 26.4231 21.6961 26.371 21.626L25.052 19.878L24.857 20.074V21.3C24.857 21.4493 24.7977 21.5925 24.6921 21.6981C24.5865 21.8037 24.4433 21.864 24.294 21.864Z" fill="#FFE812"/>
</g>
<defs>
<clipPath id="clip0_875_2832">
<rect width="40" height="40" fill="white"/>
</clipPath>
</defs>
</svg>
