<svg width="24" height="24" viewBox="0 0 24 24" fill="none" xmlns="http://www.w3.org/2000/svg">
<path d="M6.46155 13C6.18655 13 5.95113 12.9021 5.7553 12.7063C5.55946 12.5104 5.46155 12.275 5.46155 12C5.46155 11.725 5.55946 11.4896 5.7553 11.2938C5.95113 11.0979 6.18655 11 6.46155 11C6.73656 11 6.97199 11.0979 7.16782 11.2938C7.36366 11.4896 7.46157 11.725 7.46157 12C7.46157 12.275 7.36366 12.5104 7.16782 12.7063C6.97199 12.9021 6.73656 13 6.46155 13ZM12 13C11.725 13 11.4896 12.9021 11.2938 12.7063C11.0979 12.5104 11 12.275 11 12C11 11.725 11.0979 11.4896 11.2938 11.2938C11.4896 11.0979 11.725 11 12 11C12.275 11 12.5104 11.0979 12.7063 11.2938C12.9021 11.4896 13 11.725 13 12C13 12.275 12.9021 12.5104 12.7063 12.7063C12.5104 12.9021 12.275 13 12 13ZM17.5385 13C17.2635 13 17.0281 12.9021 16.8322 12.7063C16.6364 12.5104 16.5385 12.275 16.5385 12C16.5385 11.725 16.6364 11.4896 16.8322 11.2938C17.0281 11.0979 17.2635 11 17.5385 11C17.8135 11 18.0489 11.0979 18.2447 11.2938C18.4406 11.4896 18.5385 11.725 18.5385 12C18.5385 12.275 18.4406 12.5104 18.2447 12.7063C18.0489 12.9021 17.8135 13 17.5385 13Z" fill="#F24822"/>
</svg>
