<svg width="24" height="24" viewBox="0 0 24 24" fill="none" xmlns="http://www.w3.org/2000/svg">
<path d="M12 18.5385C11.725 18.5385 11.4896 18.4406 11.2938 18.2447C11.0979 18.0489 11 17.8135 11 17.5385C11 17.2635 11.0979 17.0281 11.2938 16.8322C11.4896 16.6364 11.725 16.5385 12 16.5385C12.275 16.5385 12.5104 16.6364 12.7063 16.8322C12.9021 17.0281 13 17.2635 13 17.5385C13 17.8135 12.9021 18.0489 12.7063 18.2447C12.5104 18.4406 12.275 18.5385 12 18.5385ZM12 13C11.725 13 11.4896 12.9021 11.2938 12.7063C11.0979 12.5104 11 12.275 11 12C11 11.725 11.0979 11.4896 11.2938 11.2938C11.4896 11.0979 11.725 11 12 11C12.275 11 12.5104 11.0979 12.7063 11.2938C12.9021 11.4896 13 11.725 13 12C13 12.275 12.9021 12.5104 12.7063 12.7063C12.5104 12.9021 12.275 13 12 13ZM12 7.46157C11.725 7.46157 11.4896 7.36366 11.2938 7.16782C11.0979 6.97199 11 6.73656 11 6.46155C11 6.18655 11.0979 5.95113 11.2938 5.7553C11.4896 5.55946 11.725 5.46155 12 5.46155C12.275 5.46155 12.5104 5.55946 12.7063 5.7553C12.9021 5.95113 13 6.18655 13 6.46155C13 6.73656 12.9021 6.97199 12.7063 7.16782C12.5104 7.36366 12.275 7.46157 12 7.46157Z" fill="#F24822"/>
</svg>
