<svg width="24" height="24" viewBox="0 0 24 24" fill="none" xmlns="http://www.w3.org/2000/svg">
<path d="M13.4667 19.965C13.0542 20.103 12.6111 19.816 12.6111 19.4019V5.69276C12.6111 5.54019 12.6722 5.38763 12.8021 5.29318C13.5507 4.72651 15.2694 4 17.5 4C19.4288 4 21.2316 4.48313 22.3087 4.87544C22.7403 5.03527 23 5.44212 23 5.88165V19.3329C23 19.7652 22.5111 20.0667 22.0795 19.9323C20.8764 19.5509 18.9705 19.1113 17.5 19.1113C16.2052 19.1113 14.4826 19.6199 13.4667 19.965ZM10.5333 19.965C9.51736 19.6199 7.79479 19.1113 6.5 19.1113C5.02951 19.1113 3.12361 19.5509 1.92048 19.9323C1.48889 20.0703 1 19.7652 1 19.3329V5.88165C1 5.44212 1.25972 5.03527 1.69132 4.87907C2.7684 4.48313 4.57118 4 6.5 4C8.73056 4 10.4493 4.72651 11.1979 5.29318C11.324 5.38763 11.3889 5.54019 11.3889 5.69276V19.4019C11.3889 19.816 10.942 20.103 10.5333 19.965Z" fill="#F24822"/>
</svg>
