<svg width="24" height="24" viewBox="0 0 24 24" fill="none" xmlns="http://www.w3.org/2000/svg">
<path fill-rule="evenodd" clip-rule="evenodd" d="M11.3027 16.3854C11.697 16.7746 11.6957 17.4114 11.2999 17.799L7.70978 21.3149C7.32101 21.6956 6.69918 21.6956 6.31042 21.3149L2.72032 17.799C2.32452 17.4114 2.32323 16.7746 2.71746 16.3854C3.10241 16.0054 3.72096 16.0041 4.10744 16.3826L6.01077 18.2466L6.01077 3.20221C6.01077 2.6503 6.45818 2.20288 7.0101 2.20288C7.56201 2.20288 8.00943 2.6503 8.00943 3.20221L8.00943 18.2466L9.91275 16.3826C10.2992 16.0041 10.9178 16.0054 11.3027 16.3854ZM21.2798 6.2011C21.6756 6.58872 21.6769 7.2255 21.2827 7.61472C20.8977 7.99476 20.2792 7.99602 19.8927 7.61753L17.9894 5.75358L17.9894 20.7979C17.9894 21.3499 17.542 21.7973 16.99 21.7973C16.4381 21.7973 15.9907 21.3499 15.9907 20.7979L15.9907 5.75358L14.0874 7.61753C13.7009 7.99601 13.0824 7.99476 12.6974 7.61472C12.3032 7.2255 12.3045 6.58872 12.7003 6.2011L16.2904 2.68528C16.6791 2.30456 17.301 2.30456 17.6897 2.68528L21.2798 6.2011Z" fill="#1E1E1E"/>
</svg>
