<svg width="18" height="18" viewBox="0 0 18 18" fill="none" xmlns="http://www.w3.org/2000/svg">
<path fill-rule="evenodd" clip-rule="evenodd" d="M1.60556 9C1.68752 9.14165 1.79619 9.32216 1.93081 9.53061C2.27658 10.066 2.78862 10.7779 3.4534 11.487C4.79664 12.9198 6.67463 14.25 9 14.25C11.3254 14.25 13.2034 12.9198 14.5466 11.487C15.2114 10.7779 15.7234 10.066 16.0692 9.53061C16.2038 9.32216 16.3125 9.14165 16.3944 9C16.3125 8.85835 16.2038 8.67784 16.0692 8.46939C15.7234 7.93402 15.2114 7.22205 14.5466 6.51296C13.2034 5.08017 11.3254 3.75 9 3.75C6.67463 3.75 4.79664 5.08017 3.4534 6.51296C2.78862 7.22205 2.27658 7.93402 1.93081 8.46939C1.79619 8.67784 1.68752 8.85835 1.60556 9ZM17.25 9C17.9208 8.66459 17.9207 8.66434 17.9206 8.66406L17.9193 8.66165L17.9168 8.65653L17.9082 8.63987C17.9011 8.62596 17.891 8.60649 17.8779 8.58183C17.8518 8.53252 17.814 8.46242 17.7645 8.37449C17.6657 8.19873 17.5201 7.95114 17.3292 7.65561C16.9485 7.06598 16.3824 6.27795 15.6409 5.48704C14.1716 3.91983 11.9246 2.25 9 2.25C6.07537 2.25 3.82836 3.91983 2.3591 5.48704C1.61763 6.27795 1.05155 7.06598 0.670752 7.65561C0.479888 7.95114 0.334344 8.19873 0.235479 8.37449C0.186018 8.46242 0.148155 8.53252 0.122065 8.58183C0.109018 8.60649 0.0989064 8.62596 0.0917535 8.63987L0.0832425 8.65653L0.0806542 8.66165L0.0797776 8.6634C0.0796397 8.66367 0.0791796 8.66459 0.75 9L0.0791796 8.66459C-0.0263932 8.87574 -0.0263932 9.12426 0.0791796 9.33541L0.75 9C0.0791796 9.33541 0.0790418 9.33513 0.0791796 9.33541L0.0806542 9.33835L0.0832425 9.34347L0.0917535 9.36013C0.0989064 9.37405 0.109018 9.39352 0.122065 9.41817C0.148155 9.46748 0.186018 9.53758 0.235479 9.62551C0.334344 9.80127 0.479888 10.0489 0.670752 10.3444C1.05155 10.934 1.61763 11.7221 2.3591 12.513C3.82836 14.0802 6.07537 15.75 9 15.75C11.9246 15.75 14.1716 14.0802 15.6409 12.513C16.3824 11.7221 16.9485 10.934 17.3292 10.3444C17.5201 10.0489 17.6657 9.80127 17.7645 9.62551C17.814 9.53758 17.8518 9.46748 17.8779 9.41817C17.891 9.39352 17.9011 9.37405 17.9082 9.36013L17.9168 9.34347L17.9193 9.33835L17.9202 9.3366C17.9204 9.33633 17.9208 9.33541 17.25 9ZM17.25 9L17.9208 9.33541C18.0264 9.12426 18.0261 8.87521 17.9206 8.66406L17.25 9Z" fill="#1E1E1E"/>
<path fill-rule="evenodd" clip-rule="evenodd" d="M9 7.5C8.17157 7.5 7.5 8.17157 7.5 9C7.5 9.82843 8.17157 10.5 9 10.5C9.82843 10.5 10.5 9.82843 10.5 9C10.5 8.17157 9.82843 7.5 9 7.5ZM6 9C6 7.34315 7.34315 6 9 6C10.6569 6 12 7.34315 12 9C12 10.6569 10.6569 12 9 12C7.34315 12 6 10.6569 6 9Z" fill="#1E1E1E"/>
</svg>
