<svg width="24" height="24" viewBox="0 0 24 24" fill="none" xmlns="http://www.w3.org/2000/svg">
<path d="M8.25 5.75C8.25 4.75544 8.64509 3.80161 9.34835 3.09835C10.0516 2.39509 11.0054 2 12 2C12.9946 2 13.9484 2.39509 14.6517 3.09835C15.3549 3.80161 15.75 4.75544 15.75 5.75C15.75 6.74456 15.3549 7.69839 14.6517 8.40165C13.9484 9.10491 12.9946 9.5 12 9.5C11.0054 9.5 10.0516 9.10491 9.34835 8.40165C8.64509 7.69839 8.25 6.74456 8.25 5.75ZM11.375 11.6875V22L9.48438 21.0547C8.66797 20.6484 7.78516 20.3906 6.875 20.3008L3.125 19.9258C2.48828 19.8594 2 19.3242 2 18.6797V10.75C2 10.0586 2.55859 9.5 3.25 9.5H4.43359C6.91797 9.5 9.33984 10.2656 11.375 11.6875ZM12.625 22V11.6875C14.6602 10.2656 17.082 9.5 19.5664 9.5H20.75C21.4414 9.5 22 10.0586 22 10.75V18.6797C22 19.3203 21.5117 19.8594 20.875 19.9219L17.125 20.2969C16.2188 20.3867 15.332 20.6445 14.5156 21.0508L12.625 22Z" fill="#E5A038"/>
</svg>
