<svg width="24" height="24" viewBox="0 0 24 24" fill="none" xmlns="http://www.w3.org/2000/svg">
<path d="M12 4C7.581 4 4 7.582 4 12C4 16.418 7.581 20 12 20C16.419 20 20 16.418 20 12C20 7.582 16.419 4 12 4ZM15.707 14.293C15.8945 14.4805 15.9998 14.7348 15.9998 15C15.9998 15.2652 15.8945 15.5195 15.707 15.707C15.5195 15.8945 15.2652 15.9998 15 15.9998C14.7348 15.9998 14.4805 15.8945 14.293 15.707L12 13.414L9.707 15.707C9.61435 15.8002 9.50419 15.8741 9.38285 15.9246C9.26152 15.9751 9.13141 16.001 9 16.001C8.86859 16.001 8.73848 15.9751 8.61715 15.9246C8.49581 15.8741 8.38565 15.8002 8.293 15.707C8.10553 15.5195 8.00021 15.2652 8.00021 15C8.00021 14.7348 8.10553 14.4805 8.293 14.293L10.586 12L8.293 9.707C8.10549 9.51949 8.00015 9.26518 8.00015 9C8.00015 8.73482 8.10549 8.48051 8.293 8.293C8.48051 8.10549 8.73482 8.00015 9 8.00015C9.26518 8.00015 9.51949 8.10549 9.707 8.293L12 10.586L14.293 8.293C14.4805 8.10549 14.7348 8.00015 15 8.00015C15.2652 8.00015 15.5195 8.10549 15.707 8.293C15.8945 8.48051 15.9998 8.73482 15.9998 9C15.9998 9.26518 15.8945 9.51949 15.707 9.707L13.414 12L15.707 14.293Z" fill="#F87254"/>
</svg>
