<svg xmlns="http://www.w3.org/2000/svg" width="30" height="29" viewBox="0 0 30 29" fill="none">
  <path d="M14.6472 1.21021C15.1118 1.21021 15.5361 1.47129 15.7417 1.8837L19.2296 8.87885L27.0296 10.0075C27.4892 10.074 27.8709 10.393 28.0142 10.8304C28.1574 11.2679 28.0375 11.7479 27.7047 12.0687L22.0617 17.5099L23.3935 25.1968C23.472 25.6501 23.2837 26.1083 22.9078 26.3786C22.5319 26.649 22.0336 26.6846 21.6223 26.4705L14.6472 22.8392L7.6721 26.4705C7.26086 26.6846 6.76251 26.649 6.38659 26.3786C6.01068 26.1083 5.82241 25.6501 5.90095 25.1968L7.23272 17.5099L1.58968 12.0687C1.25693 11.7479 1.13698 11.2679 1.28025 10.8304C1.42352 10.393 1.80517 10.074 2.2648 10.0075L10.0648 8.87885L13.5527 1.8837C13.7583 1.47129 14.1826 1.21021 14.6472 1.21021Z" fill="#FFDE30"/>
</svg>