<svg xmlns="http://www.w3.org/2000/svg" width="30" height="29" viewBox="0 0 30 29" fill="none">
  <path d="M14.8235 1.21021C15.2881 1.21021 15.7124 1.47129 15.918 1.8837L19.4059 8.87885L27.2059 10.0075C27.6655 10.074 28.0472 10.393 28.1904 10.8304C28.3337 11.2679 28.2138 11.7479 27.881 12.0687L22.238 17.5099L23.5697 25.1968C23.6483 25.6501 23.46 26.1083 23.0841 26.3786C22.7082 26.649 22.2098 26.6846 21.7986 26.4705L14.8235 22.8392L7.84837 26.4705C7.43713 26.6846 6.93878 26.649 6.56286 26.3786C6.18695 26.1083 5.99868 25.6501 6.07722 25.1968L7.40899 17.5099L1.76595 12.0687C1.4332 11.7479 1.31325 11.2679 1.45652 10.8304C1.59979 10.393 1.98144 10.074 2.44106 10.0075L10.2411 8.87885L13.729 1.8837C13.9346 1.47129 14.3589 1.21021 14.8235 1.21021Z" fill="#EBEBEB"/>
</svg>