<svg width="56" height="56" viewBox="0 0 56 56" fill="none" xmlns="http://www.w3.org/2000/svg">
<g filter="url(#filter0_d_2769_6307)">
<circle cx="28" cy="24" r="24" fill="#F24822"/>
<path fill-rule="evenodd" clip-rule="evenodd" d="M27.4258 12.1138C27.2489 12.187 27.0832 12.2955 26.9393 12.4393L16.4393 22.9393C15.8536 23.5251 15.8536 24.4749 16.4393 25.0607C17.0251 25.6464 17.9749 25.6464 18.5607 25.0607L26.5 17.1213V34.5C26.5 35.3284 27.1716 36 28 36C28.8284 36 29.5 35.3284 29.5 34.5V17.1213L37.4393 25.0607C38.0251 25.6464 38.9749 25.6464 39.5607 25.0607C40.1464 24.4749 40.1464 23.5251 39.5607 22.9393L29.0607 12.4393C28.7678 12.1464 28.3839 12 28 12C27.7966 12 27.6027 12.0405 27.4258 12.1138Z" fill="white"/>
</g>
<defs>
<filter id="filter0_d_2769_6307" x="0" y="0" width="56" height="56" filterUnits="userSpaceOnUse" color-interpolation-filters="sRGB">
<feFlood flood-opacity="0" result="BackgroundImageFix"/>
<feColorMatrix in="SourceAlpha" type="matrix" values="0 0 0 0 0 0 0 0 0 0 0 0 0 0 0 0 0 0 127 0" result="hardAlpha"/>
<feOffset dy="4"/>
<feGaussianBlur stdDeviation="2"/>
<feComposite in2="hardAlpha" operator="out"/>
<feColorMatrix type="matrix" values="0 0 0 0 0 0 0 0 0 0 0 0 0 0 0 0 0 0 0.12 0"/>
<feBlend mode="normal" in2="BackgroundImageFix" result="effect1_dropShadow_2769_6307"/>
<feBlend mode="normal" in="SourceGraphic" in2="effect1_dropShadow_2769_6307" result="shape"/>
</filter>
</defs>
</svg>
